<!-- Generated by IcoMoon.io -->
<svg version="1.1" xmlns="http://www.w3.org/2000/svg" width="32" height="32" viewBox="0 0 32 32">
<title>refresh</title>
<path d="M27.067 18.053c-0.001 0-0.003 0-0.005 0-0.483 0-0.88 0.366-0.928 0.836l-0 0.004c-0.402 5.272-4.779 9.397-10.119 9.397-5.604 0-10.147-4.543-10.147-10.147 0-5.514 4.399-10.001 9.879-10.143l0.013-0c0.004-0 0.009-0 0.013-0 0.133 0 0.24 0.107 0.24 0.24 0 0 0 0 0 0v-0 3.12c0.003 0.55 0.45 0.994 1 0.994 0.198 0 0.382-0.057 0.537-0.156l-0.004 0.002 6.013-4.2c0.283-0.18 0.468-0.492 0.468-0.847s-0.185-0.667-0.464-0.844l-0.004-0.002-6-4.147c-0.157-0.107-0.351-0.172-0.56-0.172-0.552 0-1 0.448-1 1 0 0.004 0 0.008 0 0.012v-0.001 2.853c0 0.004 0 0.009 0 0.013 0 0.133-0.107 0.24-0.24 0.24-0 0-0 0-0 0h0c-6.507 0.155-11.722 5.467-11.722 11.997 0 6.627 5.373 12 12 12 6.293 0 11.455-4.844 11.959-11.007l0.003-0.043c0.002-0.020 0.002-0.043 0.002-0.067 0-0.515-0.418-0.933-0.933-0.933-0.001 0-0.002 0-0.003 0h0z"></path>
</svg>
