<?xml version="1.0" standalone="no"?>
<!DOCTYPE svg PUBLIC "-//W3C//DTD SVG 20010904//EN"
 "http://www.w3.org/TR/2001/REC-SVG-20010904/DTD/svg10.dtd">
<svg version="1.0" xmlns="http://www.w3.org/2000/svg"
 width="1024.000000pt" height="1024.000000pt" viewBox="0 0 1024.000000 1024.000000"
 preserveAspectRatio="xMidYMid meet">
<metadata>
Created by potrace 1.11, written by Peter Selinger 2001-2013
</metadata>
<g transform="translate(0.000000,1024.000000) scale(0.100000,-0.100000)"
fill="#000000" stroke="none">
<path d="M0 8571 l0 -1669 33 -7 c57 -13 1455 -18 1522 -5 81 15 208 78 275
136 30 25 81 76 113 113 51 58 100 129 326 471 158 239 317 370 486 401 115
21 377 -14 515 -68 92 -36 192 -105 240 -165 59 -74 94 -156 144 -330 66 -230
89 -280 162 -349 35 -33 111 -62 819 -313 732 -260 782 -279 812 -313 53 -58
66 -115 62 -267 -7 -279 -6 -304 16 -325 12 -11 317 -117 750 -261 794 -263
771 -253 794 -337 81 -291 -319 -1150 -732 -1572 -146 -148 -259 -220 -437
-276 -173 -54 -305 -79 -835 -161 -849 -130 -1246 -231 -1725 -436 -617 -264
-1111 -700 -1432 -1263 -225 -395 -384 -879 -457 -1387 l-28 -188 4409 0 4408
0 0 5120 0 5120 -5120 0 -5120 0 0 -1669z"/>
</g>
</svg>
